<?xml version="1.0" encoding="utf-8"?>
<!-- Generator: Adobe Illustrator 18.0.0, SVG Export Plug-In . SVG Version: 6.00 Build 0)  -->
<!DOCTYPE svg PUBLIC "-//W3C//DTD SVG 1.1//EN" "http://www.w3.org/Graphics/SVG/1.1/DTD/svg11.dtd">
<svg version="1.1" id="Layer_1" xmlns="http://www.w3.org/2000/svg" xmlns:xlink="http://www.w3.org/1999/xlink" x="0px" y="0px"
	 viewBox="0 0 24 24" enable-background="new 0 0 24 24" xml:space="preserve">
<path fill="#212121" d="M20.7,11.4l-1.4-0.1v5.4l-6.9,1.5c-0.3,0.1-0.7,0.1-1,0l-6.6-1.4c-0.1,0-0.2-0.1-0.2-0.2l-0.1-4.4
	c0-0.1,0.1-0.3,0.2-0.3l5.6-0.5c0.1,0,0.2-0.1,0.2-0.2L12,7.9v8.9l6.1-1.2v-4.5l-3.6-0.2c-0.3,0-0.5-0.2-0.7-0.5l-1.9-4.1L10,10.5
	c0,0.1-0.1,0.1-0.2,0.2l-6.6,0.7c-0.2,0-0.3-0.2-0.3-0.4l1.8-3.7c0-0.1,0.1-0.1,0.2-0.1L11.7,6h0.2h0.2L19,7.2
	c0.1,0,0.2,0.1,0.2,0.1L21,11C21.1,11.2,20.9,11.4,20.7,11.4L20.7,11.4z"/>
</svg>
