<?xml version="1.0" encoding="utf-8"?>
<!-- Generator: Adobe Illustrator 18.0.0, SVG Export Plug-In . SVG Version: 6.00 Build 0)  -->
<!DOCTYPE svg PUBLIC "-//W3C//DTD SVG 1.1//EN" "http://www.w3.org/Graphics/SVG/1.1/DTD/svg11.dtd">
<svg version="1.1" id="Layer_1" xmlns="http://www.w3.org/2000/svg" xmlns:xlink="http://www.w3.org/1999/xlink" x="0px" y="0px"
	 viewBox="0 0 24 24" enable-background="new 0 0 24 24" xml:space="preserve">
<g>
	<g>
		<path fill="#212121" d="M9.7,14c-0.8,0-1.5,0.7-1.5,1.5c0,0.8,0.7,1.5,1.5,1.5s1.5-0.7,1.5-1.5C11.2,14.7,10.5,14,9.7,14L9.7,14z
			 M9.7,16.3c-0.4,0-0.8-0.3-0.8-0.8c0-0.4,0.3-0.8,0.8-0.8c0.4,0,0.8,0.3,0.8,0.8C10.4,16,10.1,16.3,9.7,16.3L9.7,16.3z M21,12.9
			v1.6c0,0.4-0.3,0.7-0.7,0.7h-0.8c-0.1-1-1-1.7-2-1.7s-1.8,0.7-2,1.7h-3.9c-0.1-1-1-1.7-2-1.7s-1.8,0.7-2,1.7h-1
			c-0.4,0-0.7-0.3-0.7-0.7v-1.6H21z M17.5,14c-0.8,0-1.5,0.7-1.5,1.5c0,0.8,0.7,1.5,1.5,1.5s1.5-0.7,1.5-1.5
			C19,14.7,18.4,14,17.5,14L17.5,14z M17.5,16.3c-0.4,0-0.8-0.3-0.8-0.8c0-0.4,0.3-0.8,0.8-0.8c0.4,0,0.8,0.3,0.8,0.8
			C18.3,16,17.9,16.3,17.5,16.3L17.5,16.3z M20.7,11.3l-2.8-2.8c-0.2-0.2-0.4-0.3-0.7-0.3h-1.4V7.7C15.8,7.3,15.4,7,15,7H6.7
			C6.3,7,6,7.3,6,7.7v0.1L3.1,8.1l5.2,0.7L3,9.3L8.3,10L3,10.5l3,0.6v1.4h15V12C21,11.7,20.9,11.5,20.7,11.3L20.7,11.3z M19.5,11.4
			h-2.8c-0.1,0-0.1-0.1-0.1-0.1V9.2c0-0.1,0.1-0.1,0.1-0.1h0.5h0.1l2.2,2.1C19.6,11.3,19.6,11.4,19.5,11.4L19.5,11.4z"/>
	</g>
</g>
</svg>
