<?xml version="1.0" encoding="utf-8"?>
<!-- Generator: Adobe Illustrator 18.0.0, SVG Export Plug-In . SVG Version: 6.00 Build 0)  -->
<!DOCTYPE svg PUBLIC "-//W3C//DTD SVG 1.1//EN" "http://www.w3.org/Graphics/SVG/1.1/DTD/svg11.dtd">
<svg version="1.1" id="Layer_1" xmlns="http://www.w3.org/2000/svg" xmlns:xlink="http://www.w3.org/1999/xlink" x="0px" y="0px"
	 viewBox="0 0 24 24" enable-background="new 0 0 24 24" xml:space="preserve">
<g>
	<g>
		<path fill="#212121" d="M14.5,10.6c0-0.2-0.1-0.3-0.2-0.5L15,5.6c0-0.2-0.1-0.3-0.2-0.4l0,0c-0.2,0-0.3,0.1-0.4,0.2l-1.3,4.3
			c-0.3,0.2-0.5,0.5-0.5,0.9c0,0.5,0.4,1,1,1c0.1,0,0.2,0,0.3,0l2.7,1.4c0.2,0.1,0.3,0,0.4-0.1l0,0c0.1-0.1,0.1-0.3-0.1-0.4
			L14.5,10.6z M13.1,10.8c0-0.3,0.2-0.5,0.5-0.5s0.5,0.2,0.5,0.5s-0.2,0.5-0.5,0.5S13.1,11,13.1,10.8L13.1,10.8z M21,10.8
			c0,3.3-2.2,6.1-5.2,7.1v-1.1c2.4-0.9,4.2-3.3,4.2-6c0-3.6-2.9-6.4-6.4-6.4c-3.6,0-6.4,2.9-6.4,6.4c0,0.4,0,0.7,0.1,1h-1
			c0-0.3-0.1-0.7-0.1-1c0-4.1,3.3-7.5,7.5-7.5C17.7,3.3,21,6.7,21,10.8L21,10.8z M14.8,16.1l-2.3-2.3c-0.1-0.1-0.3-0.2-0.5-0.2h-1.2
			v-0.4c0-0.3-0.3-0.6-0.6-0.6H3.6c-0.3,0-0.6,0.3-0.6,0.6v3.9h12.1v-0.4C15.1,16.4,15,16.2,14.8,16.1L14.8,16.1z M13.8,16.1h-2.2
			c-0.1,0-0.1,0-0.1-0.1v-1.7c0-0.1,0-0.1,0.1-0.1H12c0,0,0,0,0.1,0l1.8,1.7C14,16,13.9,16.1,13.8,16.1L13.8,16.1z M15.1,17.4v1.3
			c0,0.3-0.3,0.6-0.6,0.6h-0.6c-0.1-0.8-0.8-1.4-1.6-1.4s-1.5,0.6-1.6,1.4H7.5c-0.1-0.8-0.8-1.4-1.6-1.4s-1.5,0.6-1.6,1.4H3.6
			C3.3,19.3,3,19,3,18.7v-1.3C3,17.4,15.1,17.4,15.1,17.4z M12.3,18.3c-0.7,0-1.2,0.5-1.2,1.2s0.5,1.2,1.2,1.2s1.2-0.5,1.2-1.2
			S13,18.3,12.3,18.3L12.3,18.3z M12.3,20.1c-0.3,0-0.6-0.3-0.6-0.6c0-0.3,0.3-0.6,0.6-0.6s0.6,0.3,0.6,0.6
			C12.9,19.8,12.6,20.1,12.3,20.1L12.3,20.1z M6,18.3c-0.7,0-1.2,0.5-1.2,1.2s0.5,1.2,1.2,1.2s1.2-0.5,1.2-1.2S6.6,18.3,6,18.3
			L6,18.3z M6,20.1c-0.3,0-0.6-0.3-0.6-0.6c0-0.3,0.3-0.6,0.6-0.6c0.3,0,0.6,0.3,0.6,0.6C6.6,19.8,6.3,20.1,6,20.1L6,20.1z"/>
	</g>
</g>
</svg>
