<?xml version="1.0" encoding="utf-8"?>
<!-- Generator: Adobe Illustrator 18.0.0, SVG Export Plug-In . SVG Version: 6.00 Build 0)  -->
<!DOCTYPE svg PUBLIC "-//W3C//DTD SVG 1.1//EN" "http://www.w3.org/Graphics/SVG/1.1/DTD/svg11.dtd">
<svg version="1.1" id="Layer_1" xmlns="http://www.w3.org/2000/svg" xmlns:xlink="http://www.w3.org/1999/xlink" x="0px" y="0px"
	 viewBox="0 0 24 24" enable-background="new 0 0 24 24" xml:space="preserve">
<g>
	<g>
		<g>
			<defs>
				<rect id="SVGID_1_" x="3" y="4" width="18" height="15.9"/>
			</defs>
			<clipPath id="SVGID_2_">
				<use xlink:href="#SVGID_1_"  overflow="visible"/>
			</clipPath>
			<path clip-path="url(#SVGID_2_)" d="M20.1,5.8c-0.8-1-1.9-1.5-3.7-1.8c-0.1,0-0.3,0-0.4,0c-1.5,0-3.1,0.8-4,1.8
				C11.1,4.7,9.6,4,8,4C7.9,4,7.8,4,7.6,4c-1.8,0.3-3,0.8-3.7,1.8c-0.8,1-1,2.3-0.8,4c0.1,0.6,0.4,1.3,0.8,1.9h2.6l0.3-4.2
				c0-0.4,0.3-0.6,0.6-0.6S8,7,8.1,7.4l2.1,6.2L11.4,9c0.1-0.3,0.4-0.5,0.6-0.5l0,0c0.3,0,0.6,0.3,0.6,0.5l0.8,2.7l0.6-1
				c0.1-0.1,0.3-0.3,0.5-0.4c0.3,0,0.4,0,0.5,0.1l0.8,0.6h1.3c0.4,0,0.6,0.3,0.6,0.6c0,0.4-0.3,0.6-0.6,0.6h-1.5
				c-0.1,0-0.4-0.1-0.5-0.1L14.8,12l-1,1.7c-0.1,0.3-0.4,0.4-0.6,0.4s-0.5-0.3-0.5-0.5l-0.4-1.7l-1,4.1c-0.1,0.3-0.4,0.5-0.6,0.5
				l0,0c-0.3,0-0.5-0.3-0.6-0.5l-1.7-5l-0.1,1.3c0,0.4-0.4,0.6-0.6,0.6H4.9c1.2,1.5,2.8,3.1,4.2,4.4l0,0c0.6,0.6,1.3,1.3,1.7,1.7
				c0,0,0.5,0.6,1,0.6c0.5,0,1-0.5,1-0.6c0.4-0.5,1.2-1.2,1.8-1.8c2.4-2.3,5.7-5.3,6-7.7C21.1,8.1,20.9,6.9,20.1,5.8L20.1,5.8z"/>
		</g>
	</g>
</g>
</svg>
