<?xml version="1.0" encoding="utf-8"?>
<!-- Generator: Adobe Illustrator 18.0.0, SVG Export Plug-In . SVG Version: 6.00 Build 0)  -->
<!DOCTYPE svg PUBLIC "-//W3C//DTD SVG 1.1//EN" "http://www.w3.org/Graphics/SVG/1.1/DTD/svg11.dtd">
<svg version="1.1" id="Layer_1" xmlns="http://www.w3.org/2000/svg" xmlns:xlink="http://www.w3.org/1999/xlink" x="0px" y="0px"
	 viewBox="0 0 24 24" enable-background="new 0 0 24 24" xml:space="preserve">
<g>
	<path d="M8,19.1c0,1-0.8,1.9-1.9,1.9c-1,0-1.9-0.8-1.9-1.9c0-1,0.8-1.9,1.9-1.9C7.2,17.2,8,18.1,8,19.1L8,19.1z M14.4,6.7
		c1,0,1.9-0.8,1.9-1.9S15.4,3,14.4,3c-1,0-1.9,0.8-1.9,1.9S13.3,6.7,14.4,6.7L14.4,6.7z M19.6,11.5L18,9c-0.1-0.1-0.2-0.2-0.3-0.3
		L16,7.8c-0.8-0.5-3.3-1.1-4.4-0.8c0,0,0,0,0,0c-0.1,0-0.2,0.1-0.3,0.1L8.5,9c0,0-0.1,0-0.1,0.1l-1.9,1.8c-0.3,0.3-0.3,0.8,0,1.1
		c0.1,0.2,0.3,0.2,0.5,0.2c0.2,0,0.4-0.1,0.5-0.2l1.9-1.8L11,9.1l-1.9,4.6l-0.8,1.5c-0.2,0.5-0.1,1,0.4,1.3c0.1,0.1,0.3,0.1,0.4,0.1
		c0.3,0,0.7-0.2,0.8-0.5l0.1-0.2l0,0l1.6-2.2L11,16.2l-1.3,3.5c-0.2,0.5,0.1,1,0.6,1.2c0.1,0,0.2,0.1,0.3,0.1c0.4,0,0.7-0.2,0.9-0.6
		l2.5-6.8c0-0.1,0-0.1,0-0.2l1.4-4.1c0,0,0,0,0-0.1l1.4,0.7l1.5,2.4c0.1,0.2,0.4,0.3,0.6,0.3c0.1,0,0.3,0,0.4-0.1
		C19.8,12.3,19.9,11.8,19.6,11.5L19.6,11.5z M19.6,11.5"/>
</g>
</svg>
