<?xml version="1.0" encoding="utf-8"?>
<!-- Generator: Adobe Illustrator 18.0.0, SVG Export Plug-In . SVG Version: 6.00 Build 0)  -->
<!DOCTYPE svg PUBLIC "-//W3C//DTD SVG 1.1//EN" "http://www.w3.org/Graphics/SVG/1.1/DTD/svg11.dtd">
<svg version="1.1" id="Layer_1" xmlns="http://www.w3.org/2000/svg" xmlns:xlink="http://www.w3.org/1999/xlink" x="0px" y="0px"
	 viewBox="413.2 425.2 24 24" enable-background="new 413.2 425.2 24 24" xml:space="preserve">
<path opacity="0.18" d="M425.2,425.2c-6.6,0-12,5.4-12,12s5.4,12,12,12c6.6,0,12-5.4,12-12S431.8,425.2,425.2,425.2z M430.3,444.4
	l-5.1-3.1l-5.1,3.1l1.3-5.8l-4.5-3.9l5.9-0.5l2.3-5.4l2.3,5.4l5.9,0.5l-4.5,3.9L430.3,444.4z"/>
<path fill="#BC1D26" d="M426.1,425.2c-6.1,0-11.1,5-11.1,11.1s5,11.1,11.1,11.1c6.1,0,11.1-5,11.1-11.1S432.2,425.2,426.1,425.2z
	 M430.8,443l-4.7-2.8l-4.7,2.8l1.2-5.3l-4.1-3.6l5.5-0.5l2.1-5l2.1,5l5.5,0.5l-4.1,3.6L430.8,443z"/>
</svg>
