<?xml version="1.0" encoding="utf-8"?>
<!-- Generator: Adobe Illustrator 18.0.0, SVG Export Plug-In . SVG Version: 6.00 Build 0)  -->
<!DOCTYPE svg PUBLIC "-//W3C//DTD SVG 1.1//EN" "http://www.w3.org/Graphics/SVG/1.1/DTD/svg11.dtd">
<svg version="1.1" id="Layer_1" xmlns="http://www.w3.org/2000/svg" xmlns:xlink="http://www.w3.org/1999/xlink" x="0px" y="0px"
	 viewBox="0 0 24 48" enable-background="new 0 0 24 48" xml:space="preserve">
<g opacity="0.18">
	<path d="M0,44.4c0,1.3,0.5,2.5,1.2,3c0.3,0.2,0.5,0.3,0.8,0.3c0.5,0,1-0.3,1.4-1L12,35.1l8.6,11.6c0.4,0.6,0.9,1,1.4,1
		c0.3,0,0.5-0.1,0.8-0.3c0.8-0.5,1.2-1.7,1.2-3V0H0V44.4z M0,44.4"/>
</g>
<g>
	<path fill="#BC1D26" d="M1.4,41.9c0,1.2,0.5,2.4,1.2,2.8c0.2,0.2,0.5,0.2,0.7,0.2c0.5,0,1-0.3,1.3-0.9l8.1-10.9L20.8,44
		c0.4,0.6,0.8,0.9,1.3,0.9c0.2,0,0.5-0.1,0.7-0.2c0.7-0.5,1.2-1.6,1.2-2.8V0H1.4V41.9z M1.4,41.9"/>
</g>
<g>
	<path fill="#FFFFFF" d="M13.9,12.6c0,0,0.6,2.1,0.6,3.8c0,1.6-1.1,2.9-2.7,2.9c-1.6,0-2.9-1.3-2.9-2.9l0-0.3
		c-1.6,1.9-2.6,4.4-2.6,7c0,3.5,2.8,6.3,6.4,6.3s6.4-2.8,6.4-6.3C19.1,18.9,17,15.1,13.9,12.6z M12.5,27.1c-1.4,0-2.6-1.1-2.6-2.5
		c0-1.3,0.8-2.2,2.2-2.5c1.4-0.3,2.9-1,3.7-2c0.3,1,0.5,2.1,0.5,3.2C16.3,25.4,14.6,27.1,12.5,27.1z"/>
</g>
</svg>
