<?xml version="1.0" encoding="utf-8"?>
<!-- Generator: Adobe Illustrator 18.0.0, SVG Export Plug-In . SVG Version: 6.00 Build 0)  -->
<!DOCTYPE svg PUBLIC "-//W3C//DTD SVG 1.1//EN" "http://www.w3.org/Graphics/SVG/1.1/DTD/svg11.dtd">
<svg version="1.1" id="Layer_1" xmlns="http://www.w3.org/2000/svg" xmlns:xlink="http://www.w3.org/1999/xlink" x="0px" y="0px"
	 viewBox="0 0 24 24" enable-background="new 0 0 24 24" xml:space="preserve">
<g>
	<g>
		<defs>
			<rect id="SVGID_1_" x="5.1" y="3" width="13.8" height="18"/>
		</defs>
		<clipPath id="SVGID_2_">
			<use xlink:href="#SVGID_1_"  overflow="visible"/>
		</clipPath>
		<path clip-path="url(#SVGID_2_)" d="M9.8,6.7h4.3c0.7,0,1.2-0.6,1.2-1.2c0-0.7-0.6-1.2-1.2-1.2h-0.2C13.8,3.5,13.2,3,12.5,3h-1
			c-0.7,0-1.3,0.5-1.4,1.2H9.8c-0.7,0-1.2,0.6-1.2,1.2C8.6,6.2,9.1,6.7,9.8,6.7L9.8,6.7z M9.8,6.7"/>
	</g>
	<path d="M15.8,3.8H15c0.5,0.3,0.8,0.7,0.9,1.2c0.9,0.1,1.7,0.9,1.7,1.8v11c0,1-0.8,1.8-1.8,1.8H8.2c-1,0-1.8-0.8-1.8-1.8v-11
		c0-1,0.7-1.8,1.7-1.8c0.1-0.5,0.5-1,0.9-1.2H8.2c-1.7,0-3.1,1.4-3.1,3.1v11c0,1.7,1.4,3.1,3.1,3.1h7.7c1.7,0,3.1-1.4,3.1-3.1v-11
		C18.9,5.2,17.5,3.8,15.8,3.8L15.8,3.8z M15.8,3.8"/>
	<path d="M15.8,8.9H12c-0.3,0-0.6,0.3-0.6,0.6c0,0.3,0.3,0.6,0.6,0.6h3.8c0.3,0,0.6-0.3,0.6-0.6C16.4,9.1,16.1,8.9,15.8,8.9
		L15.8,8.9z M15.8,8.9"/>
	<path d="M15.8,12.1H12c-0.3,0-0.6,0.3-0.6,0.6c0,0.3,0.3,0.6,0.6,0.6h3.8c0.3,0,0.6-0.3,0.6-0.6C16.4,12.4,16.1,12.1,15.8,12.1
		L15.8,12.1z M15.8,12.1"/>
	<path d="M15.8,15.4H12c-0.3,0-0.6,0.3-0.6,0.6c0,0.3,0.3,0.6,0.6,0.6h3.8c0.3,0,0.6-0.3,0.6-0.6C16.4,15.7,16.1,15.4,15.8,15.4
		L15.8,15.4z M15.8,15.4"/>
	<path d="M11.1,9.5c0-1-0.8-1.8-1.8-1.8c-1,0-1.8,0.8-1.8,1.8c0,0.7,0.4,1.3,1,1.6c-0.6,0.3-1,0.9-1,1.6c0,0.7,0.4,1.3,1,1.6
		c-0.6,0.3-1,0.9-1,1.6c0,1,0.8,1.8,1.8,1.8c1,0,1.8-0.8,1.8-1.8c0-0.7-0.4-1.3-1-1.6c0.6-0.3,1-0.9,1-1.6c0-0.7-0.4-1.3-1-1.6
		C10.7,10.8,11.1,10.2,11.1,9.5L11.1,9.5z M10.4,15.2c0.1,0.1,0.1,0.4,0,0.5l-1.1,1.1c-0.1,0.1-0.2,0.1-0.2,0.1
		c-0.1,0-0.2,0-0.2-0.1l-0.7-0.7C8,16,8,15.8,8.1,15.7c0.1-0.1,0.4-0.1,0.5,0L9,16.1l0.9-0.9C10,15.1,10.2,15.1,10.4,15.2L10.4,15.2
		z M10.4,11.9c0.1,0.1,0.1,0.4,0,0.5l-1.1,1.1c-0.1,0.1-0.2,0.1-0.2,0.1c-0.1,0-0.2,0-0.2-0.1l-0.7-0.7c-0.1-0.1-0.1-0.4,0-0.5
		c0.1-0.1,0.4-0.1,0.5,0L9,12.8l0.9-0.9C10,11.8,10.2,11.8,10.4,11.9L10.4,11.9z M10.4,9.2l-1.1,1.1c-0.1,0.1-0.2,0.1-0.2,0.1
		c-0.1,0-0.2,0-0.2-0.1L8.1,9.6C8,9.5,8,9.3,8.1,9.1C8.2,9,8.4,9,8.6,9.1L9,9.5l0.9-0.9c0.1-0.1,0.4-0.1,0.5,0
		C10.5,8.8,10.5,9,10.4,9.2L10.4,9.2z M10.4,9.2"/>
</g>
</svg>
