<?xml version="1.0" encoding="utf-8"?>
<!-- Generator: Adobe Illustrator 18.0.0, SVG Export Plug-In . SVG Version: 6.00 Build 0)  -->
<!DOCTYPE svg PUBLIC "-//W3C//DTD SVG 1.1//EN" "http://www.w3.org/Graphics/SVG/1.1/DTD/svg11.dtd">
<svg version="1.1" id="Layer_1" xmlns="http://www.w3.org/2000/svg" xmlns:xlink="http://www.w3.org/1999/xlink" x="0px" y="0px"
	 viewBox="0 0 24 24" enable-background="new 0 0 24 24" xml:space="preserve">
<g>
	<path fill="#212121" d="M6.8,18.5V5.7h10.3v10.7l2-1.6V4.7c0-0.5-0.4-1-1-1H5.8c-0.5,0-1,0.4-1,1v14.8c0,0.5,0.4,1,1,1h8.6l-1.4-2
		H6.8z"/>
	<path fill="#212121" d="M21.9,14.3c-0.2-0.2-0.5-0.2-0.7,0L16.7,18l-3-1.8c-0.2-0.1-0.5-0.1-0.6,0.1c-0.2,0.2-0.2,0.4,0,0.6
		l3.3,4.6c0.1,0.1,0.2,0.2,0.4,0.2l0,0c0.2,0,0.3-0.1,0.4-0.2l4.8-6.6C22.1,14.7,22.1,14.4,21.9,14.3L21.9,14.3z"/>
	<path fill="#212121" d="M14.9,7.1H9c-0.5,0-1,0.4-1,1c0,0.5,0.4,1,1,1h5.9c0.5,0,1-0.4,1-1C15.8,7.6,15.4,7.1,14.9,7.1L14.9,7.1z"
		/>
	<path fill="#212121" d="M14.9,10.1H9c-0.5,0-1,0.4-1,1c0,0.5,0.4,1,1,1h5.9c0.5,0,1-0.4,1-1C15.8,10.5,15.4,10.1,14.9,10.1
		L14.9,10.1z"/>
	<path fill="#212121" d="M14.9,13H9c-0.5,0-1,0.4-1,1c0,0.5,0.4,1,1,1h5.9c0.5,0,1-0.4,1-1C15.8,13.5,15.4,13,14.9,13L14.9,13z"/>
</g>
</svg>
