<?xml version="1.0" encoding="utf-8"?>
<!-- Generator: Adobe Illustrator 18.0.0, SVG Export Plug-In . SVG Version: 6.00 Build 0)  -->
<!DOCTYPE svg PUBLIC "-//W3C//DTD SVG 1.1//EN" "http://www.w3.org/Graphics/SVG/1.1/DTD/svg11.dtd">
<svg version="1.1" id="Layer_1" xmlns="http://www.w3.org/2000/svg" xmlns:xlink="http://www.w3.org/1999/xlink" x="0px" y="0px"
	 viewBox="0 0 24 24" enable-background="new 0 0 24 24" xml:space="preserve">
<g>
	<g>
		<path fill="#212121" d="M14,11.9c-0.2-0.2-0.5-0.4-0.8-0.5s-0.6-0.2-0.9-0.2c-0.4-0.1-0.8-0.2-1-0.4l-0.1-0.1
			c-0.1-0.1-0.1-0.3-0.1-0.5s0.1-0.3,0.2-0.5c0.1-0.1,0.2-0.2,0.4-0.2c0.1,0,0.2,0,0.3,0c0.3,0,0.5,0.1,0.6,0.2
			c0.1,0.1,0.2,0.3,0.2,0.5s0.2,0.3,0.3,0.3l0,0l1-0.2c0.2,0,0.3-0.2,0.3-0.4c-0.1-0.6-0.4-1.1-0.8-1.5c-0.2-0.2-0.5-0.3-0.8-0.4
			V7.6c0-0.2-0.1-0.3-0.3-0.3h-1.1c-0.2,0-0.3,0.1-0.3,0.3v0.5c-0.4,0.1-0.7,0.3-0.9,0.5c-0.5,0.5-0.8,1-0.8,1.8
			c0,0.2,0,0.4,0.1,0.6c0,0.2,0.1,0.4,0.2,0.5c0.2,0.3,0.4,0.6,0.8,0.8c0.5,0.3,0.9,0.4,1.4,0.5c0.3,0.1,0.7,0.2,0.9,0.4
			c0.1,0.1,0.1,0.3,0.1,0.5c0,0.3-0.1,0.5-0.2,0.6c-0.1,0.2-0.3,0.3-0.6,0.3c-0.1,0-0.1,0-0.2,0c-0.3,0-0.6-0.1-0.8-0.4
			c-0.1-0.1-0.2-0.3-0.3-0.8c0-0.2-0.2-0.3-0.3-0.3c0,0,0,0-0.1,0l-1,0.2c-0.2,0-0.3,0.2-0.3,0.3c0,0.5,0.2,0.9,0.4,1.3
			c0.2,0.4,0.5,0.6,0.8,0.8c0.2,0.1,0.4,0.2,0.6,0.2v0.4c0,0.2,0.1,0.3,0.3,0.3h1.1c0.2,0,0.3-0.1,0.3-0.3V16
			c0.5-0.1,0.8-0.4,1.2-0.7c0.4-0.5,0.7-1.1,0.7-1.7c0-0.3-0.1-0.6-0.2-0.9C14.4,12.4,14.3,12.2,14,11.9L14,11.9z"/>
		<path fill="#212121" d="M19.9,7.5l0.8-0.7C21,6.5,20.8,6,20.5,5.9L16,4.6c-0.4-0.1-0.7,0.2-0.6,0.6l1.1,4.5
			c0.1,0.4,0.5,0.5,0.8,0.2L18,9.3c0.2,0.6,0.4,1.2,0.5,1.9c0.1,1.2,0,2.5-0.5,3.6c-0.4,1-1,1.8-1.7,2.5c-0.2,0.2-0.2,0.5,0,0.7
			l1,1.2c0.2,0.2,0.5,0.2,0.7,0c1-1,1.8-2.2,2.4-3.5c0.6-1.5,0.8-3.2,0.7-4.8C20.8,9.8,20.5,8.6,19.9,7.5L19.9,7.5z"/>
		<path fill="#212121" d="M4.1,16.5l-0.8,0.7C3,17.5,3.2,18,3.5,18.1L8,19.4c0.4,0.1,0.7-0.2,0.6-0.6l-1.1-4.5
			C7.4,13.9,7,13.8,6.7,14L6,14.7c-0.2-0.6-0.4-1.2-0.5-1.9c-0.1-1.2,0-2.5,0.5-3.6c0.4-1,1-1.8,1.7-2.5C8,6.4,8,6.1,7.8,5.9l-1-1.2
			c-0.2-0.2-0.5-0.2-0.7,0c-1,1-1.8,2.2-2.4,3.5C3.1,9.7,2.9,11.4,3.1,13C3.2,14.2,3.5,15.4,4.1,16.5L4.1,16.5z"/>
	</g>
</g>
</svg>
