<?xml version="1.0" encoding="utf-8"?>
<!-- Generator: Adobe Illustrator 18.0.0, SVG Export Plug-In . SVG Version: 6.00 Build 0)  -->
<!DOCTYPE svg PUBLIC "-//W3C//DTD SVG 1.1//EN" "http://www.w3.org/Graphics/SVG/1.1/DTD/svg11.dtd">
<svg version="1.1" id="Layer_1" xmlns="http://www.w3.org/2000/svg" xmlns:xlink="http://www.w3.org/1999/xlink" x="0px" y="0px"
	 viewBox="0 0 24 24" enable-background="new 0 0 24 24" xml:space="preserve">
<path d="M16.5,12l-0.3-0.1V9.4c0-0.1-0.1-0.3-0.3-0.3c-0.1,0-0.3,0.1-0.3,0.3v2.1l-1-0.6c-0.1-0.1-0.3-0.3-0.4-0.5l-0.6-2.2V8
	c-0.1-0.3-0.3-0.4-0.5-0.4h-2.4c-0.3,0-0.5,0.3-0.5,0.5H9.9V8c0-0.3-0.1-0.4-0.4-0.4H7.6C7.4,7.6,7.2,7.8,7.2,8v1.8
	c0,0.3,0.1,0.4,0.4,0.4h0.3v2.3c0,0.3,0.3,0.5,0.5,0.5h0.8c0.3,0,0.5-0.3,0.5-0.5v-0.1h0.3v1.4v2.1c0,0.3-0.1,0.6-0.3,0.8l-1.9,3.1
	c-0.1,0.1-0.1,0.4,0,0.5c0,0.1,0.3,0.3,0.4,0.4l0.6,0.1c0.1,0,0.1,0,0.3,0c0.3,0,0.6-0.1,0.8-0.4l1.8-3.1c0.1-0.3,0.3-0.8,0.3-1
	v-1.7h0.5l0.5,1c0.1,0.3,0.1,0.5,0.1,0.8l-0.5,3.3c0,0.1,0,0.4,0.1,0.5c0.1,0.1,0.3,0.1,0.4,0.1c0,0,0,0,0.1,0l0.6-0.1
	c0.4,0,0.6-0.4,0.8-0.8l0.4-3.3c0-0.3,0-0.8-0.1-1l-1-2.3v-0.6l2.1,1.2v7.5c0,0.1,0.1,0.3,0.3,0.3c0.1,0,0.3-0.1,0.3-0.3v-7.5
	c0.1,0,0.1-0.1,0.3-0.3l0.1-0.3C16.9,12.5,16.8,12.1,16.5,12L16.5,12z M9.8,11.5V8.9h0.3v2.7H9.8V11.5z"/>
<path d="M11.5,7.1c1.2,0,2.1-0.9,2.1-2.1S12.6,3,11.5,3S9.4,3.9,9.4,5.1S10.3,7.1,11.5,7.1L11.5,7.1z"/>
</svg>
