<?xml version="1.0" encoding="utf-8"?>
<!-- Generator: Adobe Illustrator 18.0.0, SVG Export Plug-In . SVG Version: 6.00 Build 0)  -->
<!DOCTYPE svg PUBLIC "-//W3C//DTD SVG 1.1//EN" "http://www.w3.org/Graphics/SVG/1.1/DTD/svg11.dtd">
<svg version="1.1" id="Layer_1" xmlns="http://www.w3.org/2000/svg" xmlns:xlink="http://www.w3.org/1999/xlink" x="0px" y="0px"
	 viewBox="0 0 24 24" enable-background="new 0 0 24 24" xml:space="preserve">
<g>
	<path d="M5.8,7.4C5.5,7.7,5.3,7.7,5.3,7.5V7c0-0.7-0.6-1.3-1.3-1.3C3.4,5.7,2.8,6.3,2.8,7v4.4c0,0.7,0.6,1.3,1.3,1.3h4.4
		c0.7,0,1.3-0.6,1.3-1.3c0-0.7-0.6-1.3-1.3-1.3H8c-0.3,0-0.3-0.3-0.1-0.6c1-1.5,2.7-2.5,4.6-2.5c3,0,5.5,2.5,5.5,5.5
		c0,3-2.5,5.5-5.5,5.5c-0.8,0-1.5,0.7-1.5,1.5c0,0.8,0.7,1.5,1.5,1.5c4.6,0,8.4-3.8,8.4-8.4c0-4.6-3.8-8.4-8.4-8.4
		C9.8,4.1,7.3,5.3,5.8,7.4L5.8,7.4z M5.8,7.4"/>
</g>
</svg>
