<?xml version="1.0" encoding="utf-8"?>
<!-- Generator: Adobe Illustrator 18.0.0, SVG Export Plug-In . SVG Version: 6.00 Build 0)  -->
<!DOCTYPE svg PUBLIC "-//W3C//DTD SVG 1.1//EN" "http://www.w3.org/Graphics/SVG/1.1/DTD/svg11.dtd">
<svg version="1.1" id="Layer_1" xmlns="http://www.w3.org/2000/svg" xmlns:xlink="http://www.w3.org/1999/xlink" x="0px" y="0px"
	 viewBox="0 0 24 24" enable-background="new 0 0 24 24" xml:space="preserve">
<g>
	<path d="M20.6,11.9c0,0.4-0.3,0.8-0.8,0.8h-3c-0.3,0-0.6-0.2-0.7-0.6L16,11.6l-0.4-1.3l-2.8,1.8l1.6,3.5l0.2,0.4
		c0.1,0.2,0.1,0.5,0,0.7c-0.1,0.2-0.4,0.4-0.6,0.4H8.6c-0.4,0-0.7-0.3-0.7-0.7c0-0.4,0.3-0.8,0.7-0.8h3.7L9.7,12
		c-0.8-1.1-0.1-1.7,0.7-2.3L14,7.6l-1.8-1.7L8.7,6.6C8.3,6.7,7.9,6.4,7.9,6C7.8,5.6,8,5.2,8.5,5.1l3.8-0.8c0.2,0,0.4,0,0.6,0.1
		l2.8,2.1c0.1,0,0.2,0.1,0.4,0.3l0.8,1.3l0.7,2.9h2.4C20.3,11.1,20.6,11.4,20.6,11.9L20.6,11.9z M18,7.3c1,0,1.9-0.8,1.9-1.9
		S19,3.6,18,3.6c-1,0-1.9,0.8-1.9,1.9S16.9,7.3,18,7.3L18,7.3z M8.8,20.3c-0.3,0.3-0.3,0.8,0,1.1c0.2,0.1,0.3,0.2,0.5,0.2
		c0.2,0,0.4-0.1,0.5-0.2l3.9-3.5h-2.5L8.8,20.3z M8.1,10.3H2.6v0.8h5.3C7.9,10.8,7.9,10.6,8.1,10.3L8.1,10.3z M10.8,8.1H2.6v0.8h7
		L10.8,8.1z M8.4,12.6H2.6v0.7H9L8.4,12.6z M8.4,12.6"/>
</g>
</svg>
