<?xml version="1.0" encoding="utf-8"?>
<!-- Generator: Adobe Illustrator 18.0.0, SVG Export Plug-In . SVG Version: 6.00 Build 0)  -->
<!DOCTYPE svg PUBLIC "-//W3C//DTD SVG 1.1//EN" "http://www.w3.org/Graphics/SVG/1.1/DTD/svg11.dtd">
<svg version="1.1" id="Layer_1" xmlns="http://www.w3.org/2000/svg" xmlns:xlink="http://www.w3.org/1999/xlink" x="0px" y="0px"
	 viewBox="0 0 24 24" enable-background="new 0 0 24 24" xml:space="preserve">
<path fill="#212121" d="M18.5,8.4c-0.7-0.6-1.5-1.1-2.3-1.5c-0.1,0.2-0.2,0.3-0.4,0.5c-0.2,0.2-0.4,0.4-0.6,0.5
	c0.2,0.1,0.5,0.2,0.7,0.3s0.3,0.4,0.2,0.6C16,9,15.7,9.1,15.5,9c-1.5-0.7-3.3-0.6-4-0.5c-0.2,0-0.4-0.1-0.5-0.3l0,0
	c-0.1-0.2,0.1-0.5,0.4-0.5c0.1,0,0.3,0,0.5-0.1c-0.1,0-0.1-0.1-0.2-0.2c-0.3-0.3-0.5-0.6-0.6-0.9V6.4c-0.2,0-0.5,0.1-0.7,0.1
	C9,5.8,7.5,5.8,6.6,5.8C6.2,5.8,6,6.3,6.1,6.6l0.8,1.6C6,9,5.3,10,5,11H4c-0.3,0-0.6,0.3-0.6,0.6v2.1c0,0.2,0.1,0.4,0.3,0.5L5,14.9
	c0.5,1.4,1.6,2.7,3,3.5v1.9C8,20.7,8.3,21,8.7,21h1.7c0.3,0,0.5-0.2,0.6-0.4l0.4-1c0.4,0,0.8,0.1,1.1,0.1c0.6,0,1.2-0.1,1.8-0.2v0.8
	c0,0.4,0.3,0.7,0.7,0.7h1.7c0.3,0,0.5-0.1,0.6-0.4c0.9-1.7,1.9-3.5,2.7-5.3c0.4-0.9,0.5-1.9,0.4-2.8C20.4,11,19.7,9.5,18.5,8.4
	L18.5,8.4z M8.1,12c-0.5,0-0.9-0.4-0.9-0.9s0.4-0.9,0.9-0.9S9,10.6,9,11.1S8.6,12,8.1,12L8.1,12z"/>
<path fill="#212121" d="M12.9,7.5c0.3,0.1,0.6,0.2,0.9,0.2c0.1,0,0.3,0,0.4,0c0.6-0.1,1.1-0.4,1.4-0.9c0.3-0.4,0.5-0.9,0.5-1.4
	c0-1.3-1-2.3-2.3-2.3s-2.3,1-2.3,2.3c0,0.3,0.1,0.7,0.2,0.9C11.9,6.8,12.3,7.3,12.9,7.5L12.9,7.5z"/>
</svg>
