<?xml version="1.0" encoding="utf-8"?>
<!-- Generator: Adobe Illustrator 18.0.0, SVG Export Plug-In . SVG Version: 6.00 Build 0)  -->
<!DOCTYPE svg PUBLIC "-//W3C//DTD SVG 1.1//EN" "http://www.w3.org/Graphics/SVG/1.1/DTD/svg11.dtd">
<svg version="1.1" id="Layer_1" xmlns="http://www.w3.org/2000/svg" xmlns:xlink="http://www.w3.org/1999/xlink" x="0px" y="0px"
	 viewBox="0 0 24 24" enable-background="new 0 0 24 24" xml:space="preserve">
<path fill="#212121" d="M17.6,17.1l-1.8-1.8c-0.7-0.7-1.9-0.7-2.6,0l-0.6,0.6l0,0l-4.3-4.3l0,0L8.8,11c0.7-0.7,0.7-1.9,0-2.6L7,6.5
	c-0.7-0.7-1.9-0.7-2.6,0L3.8,7.1c-1.5,1.5-0.5,5.2,3.7,9.5c4.2,4.2,7.9,5.3,9.5,3.7l0.6-0.6C18.3,19,18.3,17.8,17.6,17.1L17.6,17.1z
	"/>
<path fill="#212121" d="M18.6,16.5c-0.2,0-0.4-0.1-0.5-0.2c-0.5-0.3-0.6-0.9-0.3-1.4c0.7-1.1,1.1-2.3,1.1-3.6c0-3.5-2.9-6.4-6.4-6.4
	c-1.2,0-2.4,0.4-3.5,1C8.6,6.4,8,6.2,7.7,5.8C7.4,5.3,7.5,4.7,8,4.4c1.4-0.9,2.9-1.3,4.5-1.3c4.6,0,8.4,3.8,8.4,8.4
	c0,1.7-0.5,3.3-1.4,4.7C19.3,16.4,19,16.5,18.6,16.5L18.6,16.5z"/>
<path fill="#212121" d="M13.7,11.9h-1.8l1-1.2c0.5-0.6,0.9-1.2,0.9-1.7c0-0.9-0.7-1.4-1.6-1.4c-0.6,0-1.1,0.2-1.5,0.7
	c-0.1,0.1-0.1,0.2-0.1,0.3s0,0.2,0.1,0.3l0,0c0.2,0.2,0.5,0.2,0.6,0c0.2-0.2,0.6-0.4,0.9-0.4c0.3,0,0.7,0.1,0.7,0.5
	c0,0.2-0.2,0.6-0.6,1l0,0l-1.7,1.9c-0.1,0.1-0.1,0.2-0.1,0.3v0.1c0,0.2,0.2,0.4,0.4,0.4h2.8c0.2,0,0.4-0.2,0.4-0.4v-0.1
	C14.1,12.1,13.9,11.9,13.7,11.9L13.7,11.9z"/>
<path fill="#212121" d="M16.9,10.6h-0.3v-1c0-0.2-0.2-0.4-0.4-0.4h-0.1c-0.2,0-0.4,0.2-0.4,0.4v1h-0.9l1.3-2.3
	c0.1-0.1,0.1-0.3,0-0.4s-0.2-0.2-0.4-0.2h-0.1c-0.2,0-0.3,0.1-0.4,0.2l-1.7,2.9c0,0.1-0.1,0.1-0.1,0.2v0.1c0,0.2,0.2,0.4,0.4,0.4
	h1.7v0.9c0,0.2,0.2,0.4,0.4,0.4H16c0.2,0,0.4-0.2,0.4-0.4v-0.9h0.3c0.2,0,0.4-0.2,0.4-0.4V11C17.3,10.8,17.1,10.6,16.9,10.6
	L16.9,10.6z"/>
</svg>
