<?xml version="1.0" encoding="utf-8"?>
<!-- Generator: Adobe Illustrator 18.0.0, SVG Export Plug-In . SVG Version: 6.00 Build 0)  -->
<!DOCTYPE svg PUBLIC "-//W3C//DTD SVG 1.1//EN" "http://www.w3.org/Graphics/SVG/1.1/DTD/svg11.dtd">
<svg version="1.1" id="Layer_1" xmlns="http://www.w3.org/2000/svg" xmlns:xlink="http://www.w3.org/1999/xlink" x="0px" y="0px"
	 viewBox="0 0 24 24" enable-background="new 0 0 24 24" xml:space="preserve">
<g>
	<g>
		<path d="M15.9,8.1c0.2,0.2,0.4,0.2,0.5,0l4.5-4.5c0.2-0.2,0.2-0.4,0-0.5c-0.2-0.2-0.4-0.2-0.5,0l-4.5,4.5
			C15.7,7.7,15.7,8,15.9,8.1L15.9,8.1z M15.9,8.1"/>
		<path d="M19.7,11.5l-0.5-5.4l-1.3,1.3c0.1,0.5-0.1,1-0.5,1.4c-0.6,0.6-1.7,0.6-2.3,0c-0.6-0.6-0.6-1.7,0-2.3
			C15.5,6.2,16,6,16.5,6.1l1.3-1.3l-5.4-0.5c-0.2,0-0.4,0.1-0.6,0.2l-8.7,8.7c-0.3,0.3-0.3,0.7,0,1l1.9,1.9l1-1l2.7,2.7l-1,1
			l1.9,1.9c0.3,0.3,0.7,0.3,1,0l8.7-8.7C19.7,11.9,19.8,11.7,19.7,11.5L19.7,11.5z M19.7,11.5"/>
	</g>
</g>
</svg>
