<?xml version="1.0" encoding="utf-8"?>
<!-- Generator: Adobe Illustrator 18.0.0, SVG Export Plug-In . SVG Version: 6.00 Build 0)  -->
<!DOCTYPE svg PUBLIC "-//W3C//DTD SVG 1.1//EN" "http://www.w3.org/Graphics/SVG/1.1/DTD/svg11.dtd">
<svg version="1.1" id="Layer_1" xmlns="http://www.w3.org/2000/svg" xmlns:xlink="http://www.w3.org/1999/xlink" x="0px" y="0px"
	 viewBox="0 0 24 24" enable-background="new 0 0 24 24" xml:space="preserve">
<g>
	<path fill="#201A1B" d="M18.4,11.5l1.3-1.4l-1.2-1l-1.3,1.4l-3.5,0.8l0.4,1.5l2.6-0.6l-0.6,5.1l-12,2.1L4.3,21H19v-4.1l-1.2,0.3
		L18.4,11.5z"/>
	<path fill="#201A1B" d="M7.8,8.5h1.4l-0.9,3.7l3,0.8l0.8,4.1l1.5-0.3l-1-5.1l-2.4-0.6l1-4.2h-4L4.7,9l1,1.2L7.8,8.5z"/>
	<path fill="#201A1B" d="M9.6,13.7L8,13.3l-0.1,0.8l-3-0.8l-0.4,1.5L9.1,16L9.6,13.7z"/>
	<path fill="#201A1B" d="M11.6,9.2l2.1,0.5l2.6-1.4l-0.8-1.4L13.4,8L12,7.6L11.6,9.2z"/>
	<path fill="#201A1B" d="M13.2,4.7c0,0.9-0.8,1.7-1.7,1.7S9.8,5.6,9.8,4.7c0-0.9,0.8-1.7,1.7-1.7C12.4,3,13.2,3.8,13.2,4.7L13.2,4.7
		z"/>
</g>
</svg>
