<?xml version="1.0" encoding="utf-8"?>
<!-- Generator: Adobe Illustrator 18.0.0, SVG Export Plug-In . SVG Version: 6.00 Build 0)  -->
<!DOCTYPE svg PUBLIC "-//W3C//DTD SVG 1.1//EN" "http://www.w3.org/Graphics/SVG/1.1/DTD/svg11.dtd">
<svg version="1.1" id="Layer_1" xmlns="http://www.w3.org/2000/svg" xmlns:xlink="http://www.w3.org/1999/xlink" x="0px" y="0px"
	 viewBox="0 0 216 30.3" enable-background="new 0 0 216 30.3" xml:space="preserve">
<path fill="#FFFFFF" d="M33.7,15.2c0,2.4-0.7,4.6-2,6.4c-1.6,2.5-4.1,4.2-7.1,4.9c-0.7,0.2-1.5,0.3-2.3,0.3c-0.1,0-8,0-8,0
	c0-2.8,2.4-5.2,5.2-5.2h2.8c3.5-0.1,6.2-2.9,6.2-6.4c0,0,0,0,0,0c0-3.6-2.9-6.4-6.5-6.4c-0.9,0-1.8,0.2-2.6,0.5v5.9
	c0,2.9-2.3,5.2-5.2,5.2V6.5c1.5-1.3,3.2-2.2,5.2-2.7c0.8-0.2,1.7-0.3,2.6-0.3c4,0,7.6,2,9.6,5.1C32.9,10.5,33.7,12.7,33.7,15.2
	C33.7,15.2,33.7,15.2,33.7,15.2z M43.8,3.5L32.2,26.8h7.7c2.8,0,5.2-2.3,5.2-5.2h-4.4l3.1-6.5l4.7,9.5c0.7,1.3,2.5,2.2,4.3,2.2h2.6
	L43.8,3.5z M64,14.5L73.4,5c-2-2-5.3-2-7.3,0l-5.6,5.6v-2c0-2.8-2.3-5.2-5.2-5.2v18.1c0,2.8,2.3,5.2,5.2,5.2v-8.4l6.9,6.9
	c2,2,5.3,2,7.3,0L64,14.5z M88.1,12.6h-4.5c-1.1,0-1.9-0.9-1.9-1.9c0-1.1,0.9-1.9,1.9-1.9h4.5c2.8,0,5.2-2.3,5.2-5.2h-9.7
	c-3.9,0-7.1,3.2-7.1,7.1c0,3.9,3.2,7.1,7.1,7.1h4.5c1.1,0,1.9,0.9,1.9,1.9s-0.9,1.9-1.9,1.9H76.4c0,2.8,2.3,5.2,5.2,5.2h6.5
	c3.9,0,7.1-3.2,7.1-7.1C95.1,15.8,92,12.6,88.1,12.6z M107,3.5h-9.7c0,2.8,2.3,5.2,5.2,5.2h4.5c1.1,0,1.9,0.9,1.9,1.9
	c0,1.1-0.9,1.9-1.9,1.9h-9.7v9.1c0,2.8,2.3,5.2,5.2,5.2v-9.1c0,0,4.5,0,4.6,0c3.8,0,7-3.2,7-7.1C114.1,6.7,110.9,3.5,107,3.5z
	 M139.1,15.2c0,6.4-5.2,11.6-11.6,11.6c-6.4,0-11.6-5.2-11.6-11.6c0-6.4,5.2-11.6,11.6-11.6C133.9,3.5,139.1,8.7,139.1,15.2z
	 M133.6,15.2c0-3.4-2.7-6.1-6.1-6.1c-3.4,0-6.1,2.7-6.1,6.1c0,3.4,2.7,6.1,6.1,6.1C130.9,21.3,133.6,18.5,133.6,15.2z M153,17.5
	c2.9-0.8,5.2-3.6,5.2-6.9c0-3.9-3.2-7.1-7.1-7.1h-9.7c0,2.8,2.3,5.2,5.2,5.2h4.5c1.1,0,1.9,0.9,1.9,1.9c0,1.1-0.9,1.9-1.9,1.9h-9.7
	v9.1c0,2.8,2.3,5.2,5.2,5.2v-8.4l6.9,6.9c2,2,5.3,2,7.3,0L153,17.5z M166,3.5c-2.8,0-5.2,2.3-5.2,5.2h7.7v18.1
	c2.8,0,5.2-2.3,5.2-5.2V8.7h2.6c2.8,0,5.2-2.3,5.2-5.2H166z M194.6,12.6h-4.5c-1.1,0-1.9-0.9-1.9-1.9c0-1.1,0.9-1.9,1.9-1.9h4.5
	c2.8,0,5.2-2.3,5.2-5.2h-9.7c-3.9,0-7.1,3.2-7.1,7.1c0,3.9,3.2,7.1,7.1,7.1h4.5c1.1,0,1.9,0.9,1.9,1.9s-0.9,1.9-1.9,1.9H183
	c0,2.8,2.3,5.2,5.2,5.2h6.5c3.9,0,7.1-3.2,7.1-7.1C201.7,15.8,198.5,12.6,194.6,12.6z M216,15.1C216,6.8,209.2,0,200.8,0H15.2
	C6.8,0,0,6.8,0,15.1c0,8.4,6.8,15.1,15.2,15.1h185.6C209.2,30.3,216,23.5,216,15.1z M200.8,2.5c7,0,12.7,5.7,12.7,12.7
	s-5.7,12.7-12.7,12.7H15.2c-7,0-12.7-5.7-12.7-12.7S8.2,2.5,15.2,2.5H200.8z"/>
</svg>
